<mxfile host="Electron" modified="2023-12-08T02:44:43.616Z" agent="Mozilla/5.0 (Windows NT 10.0; Win64; x64) AppleWebKit/537.36 (KHTML, like Gecko) draw.io/22.1.2 Chrome/114.0.5735.289 Electron/25.9.4 Safari/537.36" etag="nSbCDpL1gO1LVf1YKjEq" version="22.1.2" type="device">
  <diagram id="C5RBs43oDa-KdzZeNtuy" name="Page-1">
    <mxGraphModel dx="3702" dy="823" grid="1" gridSize="10" guides="1" tooltips="1" connect="1" arrows="1" fold="1" page="1" pageScale="1" pageWidth="827" pageHeight="1169" math="0" shadow="0">
      <root>
        <mxCell id="WIyWlLk6GJQsqaUBKTNV-0" />
        <mxCell id="WIyWlLk6GJQsqaUBKTNV-1" parent="WIyWlLk6GJQsqaUBKTNV-0" />
        <mxCell id="n1B3bG07Pymk0ozTTaGz-98" style="edgeStyle=orthogonalEdgeStyle;rounded=1;orthogonalLoop=1;jettySize=auto;html=1;exitX=0.75;exitY=0;exitDx=0;exitDy=0;entryX=0;entryY=0.5;entryDx=0;entryDy=0;strokeColor=#E07A5F;fontColor=default;fillColor=#F2CC8F;startArrow=ERmany;startFill=0;endArrow=ERone;endFill=0;labelBackgroundColor=none;" parent="WIyWlLk6GJQsqaUBKTNV-1" source="n1B3bG07Pymk0ozTTaGz-0" target="n1B3bG07Pymk0ozTTaGz-90" edge="1">
          <mxGeometry relative="1" as="geometry" />
        </mxCell>
        <mxCell id="n1B3bG07Pymk0ozTTaGz-100" style="edgeStyle=orthogonalEdgeStyle;rounded=1;orthogonalLoop=1;jettySize=auto;html=1;exitX=0.25;exitY=0;exitDx=0;exitDy=0;entryX=0;entryY=0.5;entryDx=0;entryDy=0;strokeColor=#E07A5F;fontColor=default;fillColor=#F2CC8F;startArrow=ERmany;startFill=0;endArrow=ERone;endFill=0;labelBackgroundColor=none;" parent="WIyWlLk6GJQsqaUBKTNV-1" source="n1B3bG07Pymk0ozTTaGz-0" target="n1B3bG07Pymk0ozTTaGz-80" edge="1">
          <mxGeometry relative="1" as="geometry" />
        </mxCell>
        <mxCell id="zCOiCKSvqBVDCVRFatO3-7" style="edgeStyle=orthogonalEdgeStyle;rounded=1;orthogonalLoop=1;jettySize=auto;html=1;exitX=0.5;exitY=0;exitDx=0;exitDy=0;entryX=0.25;entryY=0;entryDx=0;entryDy=0;strokeColor=#E07A5F;fontColor=#393C56;fillColor=#F2CC8F;startArrow=ERone;startFill=0;endArrow=ERzeroToOne;endFill=0;" edge="1" parent="WIyWlLk6GJQsqaUBKTNV-1" source="n1B3bG07Pymk0ozTTaGz-0" target="zCOiCKSvqBVDCVRFatO3-0">
          <mxGeometry relative="1" as="geometry" />
        </mxCell>
        <mxCell id="n1B3bG07Pymk0ozTTaGz-0" value="books" style="shape=table;startSize=30;container=1;collapsible=1;childLayout=tableLayout;fixedRows=1;rowLines=0;fontStyle=1;align=center;resizeLast=1;rounded=1;labelBackgroundColor=none;fillColor=#F2CC8F;strokeColor=#E07A5F;fontColor=#393C56;" parent="WIyWlLk6GJQsqaUBKTNV-1" vertex="1">
          <mxGeometry x="-2260" y="380" width="160" height="150" as="geometry" />
        </mxCell>
        <mxCell id="n1B3bG07Pymk0ozTTaGz-1" value="" style="shape=tableRow;horizontal=0;startSize=0;swimlaneHead=0;swimlaneBody=0;fillColor=none;collapsible=0;dropTarget=0;points=[[0,0.5],[1,0.5]];portConstraint=eastwest;strokeColor=#E07A5F;top=0;left=0;right=0;bottom=1;rounded=1;labelBackgroundColor=none;fontColor=#393C56;" parent="n1B3bG07Pymk0ozTTaGz-0" vertex="1">
          <mxGeometry y="30" width="160" height="30" as="geometry" />
        </mxCell>
        <mxCell id="n1B3bG07Pymk0ozTTaGz-2" value="PK" style="shape=partialRectangle;overflow=hidden;connectable=0;fillColor=none;strokeColor=#E07A5F;top=0;left=0;bottom=0;right=0;fontStyle=1;rounded=1;labelBackgroundColor=none;fontColor=#393C56;" parent="n1B3bG07Pymk0ozTTaGz-1" vertex="1">
          <mxGeometry width="30" height="30" as="geometry">
            <mxRectangle width="30" height="30" as="alternateBounds" />
          </mxGeometry>
        </mxCell>
        <mxCell id="n1B3bG07Pymk0ozTTaGz-3" value="book_id " style="shape=partialRectangle;overflow=hidden;connectable=0;fillColor=none;align=left;strokeColor=#E07A5F;top=0;left=0;bottom=0;right=0;spacingLeft=6;fontStyle=5;rounded=1;labelBackgroundColor=none;fontColor=#393C56;" parent="n1B3bG07Pymk0ozTTaGz-1" vertex="1">
          <mxGeometry x="30" width="130" height="30" as="geometry">
            <mxRectangle width="130" height="30" as="alternateBounds" />
          </mxGeometry>
        </mxCell>
        <mxCell id="n1B3bG07Pymk0ozTTaGz-4" value="" style="shape=tableRow;horizontal=0;startSize=0;swimlaneHead=0;swimlaneBody=0;fillColor=none;collapsible=0;dropTarget=0;points=[[0,0.5],[1,0.5]];portConstraint=eastwest;strokeColor=#E07A5F;top=0;left=0;right=0;bottom=0;rounded=1;labelBackgroundColor=none;fontColor=#393C56;" parent="n1B3bG07Pymk0ozTTaGz-0" vertex="1">
          <mxGeometry y="60" width="160" height="30" as="geometry" />
        </mxCell>
        <mxCell id="n1B3bG07Pymk0ozTTaGz-5" value="FK" style="shape=partialRectangle;overflow=hidden;connectable=0;fillColor=none;strokeColor=#E07A5F;top=0;left=0;bottom=0;right=0;rounded=1;labelBackgroundColor=none;fontColor=#393C56;" parent="n1B3bG07Pymk0ozTTaGz-4" vertex="1">
          <mxGeometry width="30" height="30" as="geometry">
            <mxRectangle width="30" height="30" as="alternateBounds" />
          </mxGeometry>
        </mxCell>
        <mxCell id="n1B3bG07Pymk0ozTTaGz-6" value="author_id" style="shape=partialRectangle;overflow=hidden;connectable=0;fillColor=none;align=left;strokeColor=#E07A5F;top=0;left=0;bottom=0;right=0;spacingLeft=6;rounded=1;labelBackgroundColor=none;fontColor=#393C56;" parent="n1B3bG07Pymk0ozTTaGz-4" vertex="1">
          <mxGeometry x="30" width="130" height="30" as="geometry">
            <mxRectangle width="130" height="30" as="alternateBounds" />
          </mxGeometry>
        </mxCell>
        <mxCell id="n1B3bG07Pymk0ozTTaGz-7" value="" style="shape=tableRow;horizontal=0;startSize=0;swimlaneHead=0;swimlaneBody=0;fillColor=none;collapsible=0;dropTarget=0;points=[[0,0.5],[1,0.5]];portConstraint=eastwest;strokeColor=#E07A5F;top=0;left=0;right=0;bottom=0;rounded=1;labelBackgroundColor=none;fontColor=#393C56;" parent="n1B3bG07Pymk0ozTTaGz-0" vertex="1">
          <mxGeometry y="90" width="160" height="30" as="geometry" />
        </mxCell>
        <mxCell id="n1B3bG07Pymk0ozTTaGz-8" value="FK" style="shape=partialRectangle;overflow=hidden;connectable=0;fillColor=none;strokeColor=#E07A5F;top=0;left=0;bottom=0;right=0;rounded=1;labelBackgroundColor=none;fontColor=#393C56;" parent="n1B3bG07Pymk0ozTTaGz-7" vertex="1">
          <mxGeometry width="30" height="30" as="geometry">
            <mxRectangle width="30" height="30" as="alternateBounds" />
          </mxGeometry>
        </mxCell>
        <mxCell id="n1B3bG07Pymk0ozTTaGz-9" value="pub_id" style="shape=partialRectangle;overflow=hidden;connectable=0;fillColor=none;align=left;strokeColor=#E07A5F;top=0;left=0;bottom=0;right=0;spacingLeft=6;rounded=1;labelBackgroundColor=none;fontColor=#393C56;" parent="n1B3bG07Pymk0ozTTaGz-7" vertex="1">
          <mxGeometry x="30" width="130" height="30" as="geometry">
            <mxRectangle width="130" height="30" as="alternateBounds" />
          </mxGeometry>
        </mxCell>
        <mxCell id="n1B3bG07Pymk0ozTTaGz-10" value="" style="shape=tableRow;horizontal=0;startSize=0;swimlaneHead=0;swimlaneBody=0;fillColor=none;collapsible=0;dropTarget=0;points=[[0,0.5],[1,0.5]];portConstraint=eastwest;strokeColor=#E07A5F;top=0;left=0;right=0;bottom=0;rounded=1;labelBackgroundColor=none;fontColor=#393C56;" parent="n1B3bG07Pymk0ozTTaGz-0" vertex="1">
          <mxGeometry y="120" width="160" height="30" as="geometry" />
        </mxCell>
        <mxCell id="n1B3bG07Pymk0ozTTaGz-11" value="FK" style="shape=partialRectangle;overflow=hidden;connectable=0;fillColor=none;strokeColor=#E07A5F;top=0;left=0;bottom=0;right=0;rounded=1;labelBackgroundColor=none;fontColor=#393C56;" parent="n1B3bG07Pymk0ozTTaGz-10" vertex="1">
          <mxGeometry width="30" height="30" as="geometry">
            <mxRectangle width="30" height="30" as="alternateBounds" />
          </mxGeometry>
        </mxCell>
        <mxCell id="n1B3bG07Pymk0ozTTaGz-12" value="category_id" style="shape=partialRectangle;overflow=hidden;connectable=0;fillColor=none;align=left;strokeColor=#E07A5F;top=0;left=0;bottom=0;right=0;spacingLeft=6;rounded=1;labelBackgroundColor=none;fontColor=#393C56;" parent="n1B3bG07Pymk0ozTTaGz-10" vertex="1">
          <mxGeometry x="30" width="130" height="30" as="geometry">
            <mxRectangle width="130" height="30" as="alternateBounds" />
          </mxGeometry>
        </mxCell>
        <mxCell id="n1B3bG07Pymk0ozTTaGz-53" value="authors" style="shape=table;startSize=30;container=1;collapsible=1;childLayout=tableLayout;fixedRows=1;rowLines=0;fontStyle=1;align=center;resizeLast=1;rounded=1;labelBackgroundColor=none;fillColor=#F2CC8F;strokeColor=#E07A5F;fontColor=#393C56;" parent="WIyWlLk6GJQsqaUBKTNV-1" vertex="1">
          <mxGeometry x="-2460" y="335" width="160" height="60" as="geometry" />
        </mxCell>
        <mxCell id="n1B3bG07Pymk0ozTTaGz-54" value="" style="shape=tableRow;horizontal=0;startSize=0;swimlaneHead=0;swimlaneBody=0;fillColor=none;collapsible=0;dropTarget=0;points=[[0,0.5],[1,0.5]];portConstraint=eastwest;strokeColor=#E07A5F;top=0;left=0;right=0;bottom=1;rounded=1;labelBackgroundColor=none;fontColor=#393C56;" parent="n1B3bG07Pymk0ozTTaGz-53" vertex="1">
          <mxGeometry y="30" width="160" height="30" as="geometry" />
        </mxCell>
        <mxCell id="n1B3bG07Pymk0ozTTaGz-55" value="PK" style="shape=partialRectangle;overflow=hidden;connectable=0;fillColor=none;strokeColor=#E07A5F;top=0;left=0;bottom=0;right=0;fontStyle=1;rounded=1;labelBackgroundColor=none;fontColor=#393C56;" parent="n1B3bG07Pymk0ozTTaGz-54" vertex="1">
          <mxGeometry width="30" height="30" as="geometry">
            <mxRectangle width="30" height="30" as="alternateBounds" />
          </mxGeometry>
        </mxCell>
        <mxCell id="n1B3bG07Pymk0ozTTaGz-56" value="author_id" style="shape=partialRectangle;overflow=hidden;connectable=0;fillColor=none;align=left;strokeColor=#E07A5F;top=0;left=0;bottom=0;right=0;spacingLeft=6;fontStyle=5;rounded=1;labelBackgroundColor=none;fontColor=#393C56;" parent="n1B3bG07Pymk0ozTTaGz-54" vertex="1">
          <mxGeometry x="30" width="130" height="30" as="geometry">
            <mxRectangle width="130" height="30" as="alternateBounds" />
          </mxGeometry>
        </mxCell>
        <mxCell id="n1B3bG07Pymk0ozTTaGz-57" value="publishers" style="shape=table;startSize=30;container=1;collapsible=1;childLayout=tableLayout;fixedRows=1;rowLines=0;fontStyle=1;align=center;resizeLast=1;rounded=1;labelBackgroundColor=none;fillColor=#F2CC8F;strokeColor=#E07A5F;fontColor=#393C56;" parent="WIyWlLk6GJQsqaUBKTNV-1" vertex="1">
          <mxGeometry x="-2430" y="440" width="100" height="60" as="geometry" />
        </mxCell>
        <mxCell id="n1B3bG07Pymk0ozTTaGz-58" value="" style="shape=tableRow;horizontal=0;startSize=0;swimlaneHead=0;swimlaneBody=0;fillColor=none;collapsible=0;dropTarget=0;points=[[0,0.5],[1,0.5]];portConstraint=eastwest;strokeColor=#E07A5F;top=0;left=0;right=0;bottom=1;rounded=1;labelBackgroundColor=none;fontColor=#393C56;" parent="n1B3bG07Pymk0ozTTaGz-57" vertex="1">
          <mxGeometry y="30" width="100" height="30" as="geometry" />
        </mxCell>
        <mxCell id="n1B3bG07Pymk0ozTTaGz-59" value="PK" style="shape=partialRectangle;overflow=hidden;connectable=0;fillColor=none;strokeColor=#E07A5F;top=0;left=0;bottom=0;right=0;fontStyle=1;rounded=1;labelBackgroundColor=none;fontColor=#393C56;" parent="n1B3bG07Pymk0ozTTaGz-58" vertex="1">
          <mxGeometry width="30" height="30" as="geometry">
            <mxRectangle width="30" height="30" as="alternateBounds" />
          </mxGeometry>
        </mxCell>
        <mxCell id="n1B3bG07Pymk0ozTTaGz-60" value="pub_id" style="shape=partialRectangle;overflow=hidden;connectable=0;fillColor=none;align=left;strokeColor=#E07A5F;top=0;left=0;bottom=0;right=0;spacingLeft=6;fontStyle=5;rounded=1;labelBackgroundColor=none;fontColor=#393C56;" parent="n1B3bG07Pymk0ozTTaGz-58" vertex="1">
          <mxGeometry x="30" width="70" height="30" as="geometry">
            <mxRectangle width="70" height="30" as="alternateBounds" />
          </mxGeometry>
        </mxCell>
        <mxCell id="n1B3bG07Pymk0ozTTaGz-61" value="category" style="shape=table;startSize=30;container=1;collapsible=1;childLayout=tableLayout;fixedRows=1;rowLines=0;fontStyle=1;align=center;resizeLast=1;rounded=1;labelBackgroundColor=none;fillColor=#F2CC8F;strokeColor=#E07A5F;fontColor=#393C56;" parent="WIyWlLk6GJQsqaUBKTNV-1" vertex="1">
          <mxGeometry x="-2420" y="540" width="120" height="60" as="geometry" />
        </mxCell>
        <mxCell id="n1B3bG07Pymk0ozTTaGz-62" value="" style="shape=tableRow;horizontal=0;startSize=0;swimlaneHead=0;swimlaneBody=0;fillColor=none;collapsible=0;dropTarget=0;points=[[0,0.5],[1,0.5]];portConstraint=eastwest;strokeColor=#E07A5F;top=0;left=0;right=0;bottom=1;rounded=1;labelBackgroundColor=none;fontColor=#393C56;" parent="n1B3bG07Pymk0ozTTaGz-61" vertex="1">
          <mxGeometry y="30" width="120" height="30" as="geometry" />
        </mxCell>
        <mxCell id="n1B3bG07Pymk0ozTTaGz-63" value="PK" style="shape=partialRectangle;overflow=hidden;connectable=0;fillColor=none;strokeColor=#E07A5F;top=0;left=0;bottom=0;right=0;fontStyle=1;rounded=1;labelBackgroundColor=none;fontColor=#393C56;" parent="n1B3bG07Pymk0ozTTaGz-62" vertex="1">
          <mxGeometry width="30" height="30" as="geometry">
            <mxRectangle width="30" height="30" as="alternateBounds" />
          </mxGeometry>
        </mxCell>
        <mxCell id="n1B3bG07Pymk0ozTTaGz-64" value="category_id" style="shape=partialRectangle;overflow=hidden;connectable=0;fillColor=none;align=left;strokeColor=#E07A5F;top=0;left=0;bottom=0;right=0;spacingLeft=6;fontStyle=5;rounded=1;labelBackgroundColor=none;fontColor=#393C56;" parent="n1B3bG07Pymk0ozTTaGz-62" vertex="1">
          <mxGeometry x="30" width="90" height="30" as="geometry">
            <mxRectangle width="90" height="30" as="alternateBounds" />
          </mxGeometry>
        </mxCell>
        <mxCell id="n1B3bG07Pymk0ozTTaGz-65" value="users" style="shape=table;startSize=30;container=1;collapsible=1;childLayout=tableLayout;fixedRows=1;rowLines=0;fontStyle=1;align=center;resizeLast=1;rounded=1;labelBackgroundColor=none;fillColor=#F2CC8F;strokeColor=#E07A5F;fontColor=#393C56;" parent="WIyWlLk6GJQsqaUBKTNV-1" vertex="1">
          <mxGeometry x="-1840" y="540" width="80" height="60" as="geometry" />
        </mxCell>
        <mxCell id="n1B3bG07Pymk0ozTTaGz-66" value="" style="shape=tableRow;horizontal=0;startSize=0;swimlaneHead=0;swimlaneBody=0;fillColor=none;collapsible=0;dropTarget=0;points=[[0,0.5],[1,0.5]];portConstraint=eastwest;strokeColor=#E07A5F;top=0;left=0;right=0;bottom=1;rounded=1;labelBackgroundColor=none;fontColor=#393C56;" parent="n1B3bG07Pymk0ozTTaGz-65" vertex="1">
          <mxGeometry y="30" width="80" height="30" as="geometry" />
        </mxCell>
        <mxCell id="n1B3bG07Pymk0ozTTaGz-67" value="PK" style="shape=partialRectangle;overflow=hidden;connectable=0;fillColor=none;strokeColor=#E07A5F;top=0;left=0;bottom=0;right=0;fontStyle=1;rounded=1;labelBackgroundColor=none;fontColor=#393C56;" parent="n1B3bG07Pymk0ozTTaGz-66" vertex="1">
          <mxGeometry width="30" height="30" as="geometry">
            <mxRectangle width="30" height="30" as="alternateBounds" />
          </mxGeometry>
        </mxCell>
        <mxCell id="n1B3bG07Pymk0ozTTaGz-68" value="uid" style="shape=partialRectangle;overflow=hidden;connectable=0;fillColor=none;align=left;strokeColor=#E07A5F;top=0;left=0;bottom=0;right=0;spacingLeft=6;fontStyle=5;rounded=1;labelBackgroundColor=none;fontColor=#393C56;" parent="n1B3bG07Pymk0ozTTaGz-66" vertex="1">
          <mxGeometry x="30" width="50" height="30" as="geometry">
            <mxRectangle width="50" height="30" as="alternateBounds" />
          </mxGeometry>
        </mxCell>
        <mxCell id="n1B3bG07Pymk0ozTTaGz-69" value="shoppingcarts" style="shape=table;startSize=30;container=1;collapsible=1;childLayout=tableLayout;fixedRows=1;rowLines=0;fontStyle=1;align=center;resizeLast=1;rounded=1;labelBackgroundColor=none;fillColor=#F2CC8F;strokeColor=#E07A5F;fontColor=#393C56;" parent="WIyWlLk6GJQsqaUBKTNV-1" vertex="1">
          <mxGeometry x="-2040" y="640" width="100" height="90" as="geometry" />
        </mxCell>
        <mxCell id="n1B3bG07Pymk0ozTTaGz-70" value="" style="shape=tableRow;horizontal=0;startSize=0;swimlaneHead=0;swimlaneBody=0;fillColor=none;collapsible=0;dropTarget=0;points=[[0,0.5],[1,0.5]];portConstraint=eastwest;strokeColor=#E07A5F;top=0;left=0;right=0;bottom=1;rounded=1;labelBackgroundColor=none;fontColor=#393C56;" parent="n1B3bG07Pymk0ozTTaGz-69" vertex="1">
          <mxGeometry y="30" width="100" height="30" as="geometry" />
        </mxCell>
        <mxCell id="n1B3bG07Pymk0ozTTaGz-71" value="PK" style="shape=partialRectangle;overflow=hidden;connectable=0;fillColor=none;strokeColor=#E07A5F;top=0;left=0;bottom=0;right=0;fontStyle=1;rounded=1;labelBackgroundColor=none;fontColor=#393C56;" parent="n1B3bG07Pymk0ozTTaGz-70" vertex="1">
          <mxGeometry width="30" height="30" as="geometry">
            <mxRectangle width="30" height="30" as="alternateBounds" />
          </mxGeometry>
        </mxCell>
        <mxCell id="n1B3bG07Pymk0ozTTaGz-72" value="book_id" style="shape=partialRectangle;overflow=hidden;connectable=0;fillColor=none;align=left;strokeColor=#E07A5F;top=0;left=0;bottom=0;right=0;spacingLeft=6;fontStyle=5;rounded=1;labelBackgroundColor=none;fontColor=#393C56;" parent="n1B3bG07Pymk0ozTTaGz-70" vertex="1">
          <mxGeometry x="30" width="70" height="30" as="geometry">
            <mxRectangle width="70" height="30" as="alternateBounds" />
          </mxGeometry>
        </mxCell>
        <mxCell id="n1B3bG07Pymk0ozTTaGz-73" value="" style="shape=tableRow;horizontal=0;startSize=0;swimlaneHead=0;swimlaneBody=0;fillColor=none;collapsible=0;dropTarget=0;points=[[0,0.5],[1,0.5]];portConstraint=eastwest;strokeColor=#E07A5F;top=0;left=0;right=0;bottom=1;rounded=1;labelBackgroundColor=none;fontColor=#393C56;" parent="n1B3bG07Pymk0ozTTaGz-69" vertex="1">
          <mxGeometry y="60" width="100" height="30" as="geometry" />
        </mxCell>
        <mxCell id="n1B3bG07Pymk0ozTTaGz-74" value="PK" style="shape=partialRectangle;overflow=hidden;connectable=0;fillColor=none;strokeColor=#E07A5F;top=0;left=0;bottom=0;right=0;fontStyle=1;rounded=1;labelBackgroundColor=none;fontColor=#393C56;" parent="n1B3bG07Pymk0ozTTaGz-73" vertex="1">
          <mxGeometry width="30" height="30" as="geometry">
            <mxRectangle width="30" height="30" as="alternateBounds" />
          </mxGeometry>
        </mxCell>
        <mxCell id="n1B3bG07Pymk0ozTTaGz-75" value="uid " style="shape=partialRectangle;overflow=hidden;connectable=0;fillColor=none;align=left;strokeColor=#E07A5F;top=0;left=0;bottom=0;right=0;spacingLeft=6;fontStyle=5;rounded=1;labelBackgroundColor=none;fontColor=#393C56;" parent="n1B3bG07Pymk0ozTTaGz-73" vertex="1">
          <mxGeometry x="30" width="70" height="30" as="geometry">
            <mxRectangle width="70" height="30" as="alternateBounds" />
          </mxGeometry>
        </mxCell>
        <mxCell id="n1B3bG07Pymk0ozTTaGz-76" value="shoppinghistory" style="shape=table;startSize=30;container=1;collapsible=1;childLayout=tableLayout;fixedRows=1;rowLines=0;fontStyle=1;align=center;resizeLast=1;rounded=1;labelBackgroundColor=none;fillColor=#F2CC8F;strokeColor=#E07A5F;fontColor=#393C56;" parent="WIyWlLk6GJQsqaUBKTNV-1" vertex="1">
          <mxGeometry x="-1990" y="140" width="100" height="120" as="geometry" />
        </mxCell>
        <mxCell id="n1B3bG07Pymk0ozTTaGz-77" value="" style="shape=tableRow;horizontal=0;startSize=0;swimlaneHead=0;swimlaneBody=0;fillColor=none;collapsible=0;dropTarget=0;points=[[0,0.5],[1,0.5]];portConstraint=eastwest;strokeColor=#E07A5F;top=0;left=0;right=0;bottom=1;rounded=1;labelBackgroundColor=none;fontColor=#393C56;" parent="n1B3bG07Pymk0ozTTaGz-76" vertex="1">
          <mxGeometry y="30" width="100" height="30" as="geometry" />
        </mxCell>
        <mxCell id="n1B3bG07Pymk0ozTTaGz-78" value="PK" style="shape=partialRectangle;overflow=hidden;connectable=0;fillColor=none;strokeColor=#E07A5F;top=0;left=0;bottom=0;right=0;fontStyle=1;rounded=1;labelBackgroundColor=none;fontColor=#393C56;" parent="n1B3bG07Pymk0ozTTaGz-77" vertex="1">
          <mxGeometry width="30" height="30" as="geometry">
            <mxRectangle width="30" height="30" as="alternateBounds" />
          </mxGeometry>
        </mxCell>
        <mxCell id="n1B3bG07Pymk0ozTTaGz-79" value="date" style="shape=partialRectangle;overflow=hidden;connectable=0;fillColor=none;align=left;strokeColor=#E07A5F;top=0;left=0;bottom=0;right=0;spacingLeft=6;fontStyle=5;rounded=1;labelBackgroundColor=none;fontColor=#393C56;" parent="n1B3bG07Pymk0ozTTaGz-77" vertex="1">
          <mxGeometry x="30" width="70" height="30" as="geometry">
            <mxRectangle width="70" height="30" as="alternateBounds" />
          </mxGeometry>
        </mxCell>
        <mxCell id="n1B3bG07Pymk0ozTTaGz-80" value="" style="shape=tableRow;horizontal=0;startSize=0;swimlaneHead=0;swimlaneBody=0;fillColor=none;collapsible=0;dropTarget=0;points=[[0,0.5],[1,0.5]];portConstraint=eastwest;strokeColor=#E07A5F;top=0;left=0;right=0;bottom=1;rounded=1;labelBackgroundColor=none;fontColor=#393C56;" parent="n1B3bG07Pymk0ozTTaGz-76" vertex="1">
          <mxGeometry y="60" width="100" height="30" as="geometry" />
        </mxCell>
        <mxCell id="n1B3bG07Pymk0ozTTaGz-81" value="PK" style="shape=partialRectangle;overflow=hidden;connectable=0;fillColor=none;strokeColor=#E07A5F;top=0;left=0;bottom=0;right=0;fontStyle=1;rounded=1;labelBackgroundColor=none;fontColor=#393C56;" parent="n1B3bG07Pymk0ozTTaGz-80" vertex="1">
          <mxGeometry width="30" height="30" as="geometry">
            <mxRectangle width="30" height="30" as="alternateBounds" />
          </mxGeometry>
        </mxCell>
        <mxCell id="n1B3bG07Pymk0ozTTaGz-82" value="book_id " style="shape=partialRectangle;overflow=hidden;connectable=0;fillColor=none;align=left;strokeColor=#E07A5F;top=0;left=0;bottom=0;right=0;spacingLeft=6;fontStyle=5;rounded=1;labelBackgroundColor=none;fontColor=#393C56;" parent="n1B3bG07Pymk0ozTTaGz-80" vertex="1">
          <mxGeometry x="30" width="70" height="30" as="geometry">
            <mxRectangle width="70" height="30" as="alternateBounds" />
          </mxGeometry>
        </mxCell>
        <mxCell id="n1B3bG07Pymk0ozTTaGz-83" value="" style="shape=tableRow;horizontal=0;startSize=0;swimlaneHead=0;swimlaneBody=0;fillColor=none;collapsible=0;dropTarget=0;points=[[0,0.5],[1,0.5]];portConstraint=eastwest;strokeColor=#E07A5F;top=0;left=0;right=0;bottom=1;rounded=1;labelBackgroundColor=none;fontColor=#393C56;" parent="n1B3bG07Pymk0ozTTaGz-76" vertex="1">
          <mxGeometry y="90" width="100" height="30" as="geometry" />
        </mxCell>
        <mxCell id="n1B3bG07Pymk0ozTTaGz-84" value="PK" style="shape=partialRectangle;overflow=hidden;connectable=0;fillColor=none;strokeColor=#E07A5F;top=0;left=0;bottom=0;right=0;fontStyle=1;rounded=1;labelBackgroundColor=none;fontColor=#393C56;" parent="n1B3bG07Pymk0ozTTaGz-83" vertex="1">
          <mxGeometry width="30" height="30" as="geometry">
            <mxRectangle width="30" height="30" as="alternateBounds" />
          </mxGeometry>
        </mxCell>
        <mxCell id="n1B3bG07Pymk0ozTTaGz-85" value="uid " style="shape=partialRectangle;overflow=hidden;connectable=0;fillColor=none;align=left;strokeColor=#E07A5F;top=0;left=0;bottom=0;right=0;spacingLeft=6;fontStyle=5;rounded=1;labelBackgroundColor=none;fontColor=#393C56;" parent="n1B3bG07Pymk0ozTTaGz-83" vertex="1">
          <mxGeometry x="30" width="70" height="30" as="geometry">
            <mxRectangle width="70" height="30" as="alternateBounds" />
          </mxGeometry>
        </mxCell>
        <mxCell id="n1B3bG07Pymk0ozTTaGz-86" value="collections" style="shape=table;startSize=30;container=1;collapsible=1;childLayout=tableLayout;fixedRows=1;rowLines=0;fontStyle=1;align=center;resizeLast=1;rounded=1;labelBackgroundColor=none;fillColor=#F2CC8F;strokeColor=#E07A5F;fontColor=#393C56;" parent="WIyWlLk6GJQsqaUBKTNV-1" vertex="1">
          <mxGeometry x="-1990" y="460" width="100" height="90" as="geometry" />
        </mxCell>
        <mxCell id="n1B3bG07Pymk0ozTTaGz-87" value="" style="shape=tableRow;horizontal=0;startSize=0;swimlaneHead=0;swimlaneBody=0;fillColor=none;collapsible=0;dropTarget=0;points=[[0,0.5],[1,0.5]];portConstraint=eastwest;strokeColor=#E07A5F;top=0;left=0;right=0;bottom=1;rounded=1;labelBackgroundColor=none;fontColor=#393C56;" parent="n1B3bG07Pymk0ozTTaGz-86" vertex="1">
          <mxGeometry y="30" width="100" height="30" as="geometry" />
        </mxCell>
        <mxCell id="n1B3bG07Pymk0ozTTaGz-88" value="PK" style="shape=partialRectangle;overflow=hidden;connectable=0;fillColor=none;strokeColor=#E07A5F;top=0;left=0;bottom=0;right=0;fontStyle=1;rounded=1;labelBackgroundColor=none;fontColor=#393C56;" parent="n1B3bG07Pymk0ozTTaGz-87" vertex="1">
          <mxGeometry width="30" height="30" as="geometry">
            <mxRectangle width="30" height="30" as="alternateBounds" />
          </mxGeometry>
        </mxCell>
        <mxCell id="n1B3bG07Pymk0ozTTaGz-89" value="book_id" style="shape=partialRectangle;overflow=hidden;connectable=0;fillColor=none;align=left;strokeColor=#E07A5F;top=0;left=0;bottom=0;right=0;spacingLeft=6;fontStyle=5;rounded=1;labelBackgroundColor=none;fontColor=#393C56;" parent="n1B3bG07Pymk0ozTTaGz-87" vertex="1">
          <mxGeometry x="30" width="70" height="30" as="geometry">
            <mxRectangle width="70" height="30" as="alternateBounds" />
          </mxGeometry>
        </mxCell>
        <mxCell id="n1B3bG07Pymk0ozTTaGz-90" value="" style="shape=tableRow;horizontal=0;startSize=0;swimlaneHead=0;swimlaneBody=0;fillColor=none;collapsible=0;dropTarget=0;points=[[0,0.5],[1,0.5]];portConstraint=eastwest;strokeColor=#E07A5F;top=0;left=0;right=0;bottom=1;rounded=1;labelBackgroundColor=none;fontColor=#393C56;" parent="n1B3bG07Pymk0ozTTaGz-86" vertex="1">
          <mxGeometry y="60" width="100" height="30" as="geometry" />
        </mxCell>
        <mxCell id="n1B3bG07Pymk0ozTTaGz-91" value="PK" style="shape=partialRectangle;overflow=hidden;connectable=0;fillColor=none;strokeColor=#E07A5F;top=0;left=0;bottom=0;right=0;fontStyle=1;rounded=1;labelBackgroundColor=none;fontColor=#393C56;" parent="n1B3bG07Pymk0ozTTaGz-90" vertex="1">
          <mxGeometry width="30" height="30" as="geometry">
            <mxRectangle width="30" height="30" as="alternateBounds" />
          </mxGeometry>
        </mxCell>
        <mxCell id="n1B3bG07Pymk0ozTTaGz-92" value="uid " style="shape=partialRectangle;overflow=hidden;connectable=0;fillColor=none;align=left;strokeColor=#E07A5F;top=0;left=0;bottom=0;right=0;spacingLeft=6;fontStyle=5;rounded=1;labelBackgroundColor=none;fontColor=#393C56;" parent="n1B3bG07Pymk0ozTTaGz-90" vertex="1">
          <mxGeometry x="30" width="70" height="30" as="geometry">
            <mxRectangle width="70" height="30" as="alternateBounds" />
          </mxGeometry>
        </mxCell>
        <mxCell id="n1B3bG07Pymk0ozTTaGz-93" style="edgeStyle=orthogonalEdgeStyle;rounded=1;orthogonalLoop=1;jettySize=auto;html=1;exitX=1;exitY=0.5;exitDx=0;exitDy=0;entryX=0;entryY=0.5;entryDx=0;entryDy=0;strokeColor=#E07A5F;fontColor=default;fillColor=#F2CC8F;startArrow=ERone;startFill=0;endArrow=ERoneToMany;endFill=0;labelBackgroundColor=none;" parent="WIyWlLk6GJQsqaUBKTNV-1" source="n1B3bG07Pymk0ozTTaGz-62" target="n1B3bG07Pymk0ozTTaGz-10" edge="1">
          <mxGeometry relative="1" as="geometry" />
        </mxCell>
        <mxCell id="n1B3bG07Pymk0ozTTaGz-94" style="edgeStyle=orthogonalEdgeStyle;rounded=1;orthogonalLoop=1;jettySize=auto;html=1;exitX=1;exitY=0.5;exitDx=0;exitDy=0;entryX=0;entryY=0.5;entryDx=0;entryDy=0;strokeColor=#E07A5F;fontColor=default;fillColor=#F2CC8F;startArrow=ERone;startFill=0;endArrow=ERoneToMany;endFill=0;labelBackgroundColor=none;" parent="WIyWlLk6GJQsqaUBKTNV-1" source="n1B3bG07Pymk0ozTTaGz-58" target="n1B3bG07Pymk0ozTTaGz-7" edge="1">
          <mxGeometry relative="1" as="geometry" />
        </mxCell>
        <mxCell id="n1B3bG07Pymk0ozTTaGz-95" style="edgeStyle=orthogonalEdgeStyle;rounded=1;orthogonalLoop=1;jettySize=auto;html=1;exitX=1;exitY=0.5;exitDx=0;exitDy=0;entryX=0;entryY=0.5;entryDx=0;entryDy=0;strokeColor=#E07A5F;fontColor=default;fillColor=#F2CC8F;startArrow=ERone;startFill=0;endArrow=ERoneToMany;endFill=0;labelBackgroundColor=none;" parent="WIyWlLk6GJQsqaUBKTNV-1" source="n1B3bG07Pymk0ozTTaGz-54" target="n1B3bG07Pymk0ozTTaGz-4" edge="1">
          <mxGeometry relative="1" as="geometry" />
        </mxCell>
        <mxCell id="n1B3bG07Pymk0ozTTaGz-96" style="edgeStyle=orthogonalEdgeStyle;rounded=1;orthogonalLoop=1;jettySize=auto;html=1;exitX=1;exitY=0.5;exitDx=0;exitDy=0;entryX=0;entryY=0.5;entryDx=0;entryDy=0;strokeColor=#E07A5F;fontColor=default;fillColor=#F2CC8F;startArrow=ERmany;startFill=0;endArrow=ERone;endFill=0;labelBackgroundColor=none;" parent="WIyWlLk6GJQsqaUBKTNV-1" source="n1B3bG07Pymk0ozTTaGz-1" target="n1B3bG07Pymk0ozTTaGz-70" edge="1">
          <mxGeometry relative="1" as="geometry" />
        </mxCell>
        <mxCell id="n1B3bG07Pymk0ozTTaGz-97" style="edgeStyle=orthogonalEdgeStyle;rounded=1;orthogonalLoop=1;jettySize=auto;html=1;exitX=1;exitY=0.5;exitDx=0;exitDy=0;entryX=0;entryY=0.5;entryDx=0;entryDy=0;strokeColor=#E07A5F;fontColor=default;fillColor=#F2CC8F;startArrow=ERone;startFill=0;endArrow=ERmany;endFill=0;labelBackgroundColor=none;" parent="WIyWlLk6GJQsqaUBKTNV-1" source="n1B3bG07Pymk0ozTTaGz-73" target="n1B3bG07Pymk0ozTTaGz-66" edge="1">
          <mxGeometry relative="1" as="geometry" />
        </mxCell>
        <mxCell id="n1B3bG07Pymk0ozTTaGz-99" style="edgeStyle=orthogonalEdgeStyle;rounded=1;orthogonalLoop=1;jettySize=auto;html=1;exitX=1;exitY=0.5;exitDx=0;exitDy=0;entryX=0.25;entryY=0;entryDx=0;entryDy=0;strokeColor=#E07A5F;fontColor=default;fillColor=#F2CC8F;startArrow=ERone;startFill=0;endArrow=ERmany;endFill=0;labelBackgroundColor=none;" parent="WIyWlLk6GJQsqaUBKTNV-1" source="n1B3bG07Pymk0ozTTaGz-87" target="n1B3bG07Pymk0ozTTaGz-65" edge="1">
          <mxGeometry relative="1" as="geometry" />
        </mxCell>
        <mxCell id="n1B3bG07Pymk0ozTTaGz-101" style="edgeStyle=orthogonalEdgeStyle;rounded=1;orthogonalLoop=1;jettySize=auto;html=1;exitX=1;exitY=0.5;exitDx=0;exitDy=0;strokeColor=#E07A5F;fontColor=default;fillColor=#F2CC8F;entryX=1;entryY=0.5;entryDx=0;entryDy=0;startArrow=ERone;startFill=0;endArrow=ERmany;endFill=0;labelBackgroundColor=none;" parent="WIyWlLk6GJQsqaUBKTNV-1" source="n1B3bG07Pymk0ozTTaGz-83" target="n1B3bG07Pymk0ozTTaGz-66" edge="1">
          <mxGeometry relative="1" as="geometry">
            <mxPoint x="-1000" y="400" as="targetPoint" />
          </mxGeometry>
        </mxCell>
        <mxCell id="zCOiCKSvqBVDCVRFatO3-0" value="upload" style="shape=table;startSize=30;container=1;collapsible=1;childLayout=tableLayout;fixedRows=1;rowLines=0;fontStyle=1;align=center;resizeLast=1;rounded=1;labelBackgroundColor=none;fillColor=#F2CC8F;strokeColor=#E07A5F;fontColor=#393C56;" vertex="1" parent="WIyWlLk6GJQsqaUBKTNV-1">
          <mxGeometry x="-2000" y="305" width="160" height="90" as="geometry" />
        </mxCell>
        <mxCell id="zCOiCKSvqBVDCVRFatO3-1" value="" style="shape=tableRow;horizontal=0;startSize=0;swimlaneHead=0;swimlaneBody=0;fillColor=none;collapsible=0;dropTarget=0;points=[[0,0.5],[1,0.5]];portConstraint=eastwest;strokeColor=#E07A5F;top=0;left=0;right=0;bottom=1;rounded=1;labelBackgroundColor=none;fontColor=#393C56;" vertex="1" parent="zCOiCKSvqBVDCVRFatO3-0">
          <mxGeometry y="30" width="160" height="30" as="geometry" />
        </mxCell>
        <mxCell id="zCOiCKSvqBVDCVRFatO3-2" value="PK" style="shape=partialRectangle;overflow=hidden;connectable=0;fillColor=none;strokeColor=#E07A5F;top=0;left=0;bottom=0;right=0;fontStyle=1;rounded=1;labelBackgroundColor=none;fontColor=#393C56;" vertex="1" parent="zCOiCKSvqBVDCVRFatO3-1">
          <mxGeometry width="30" height="30" as="geometry">
            <mxRectangle width="30" height="30" as="alternateBounds" />
          </mxGeometry>
        </mxCell>
        <mxCell id="zCOiCKSvqBVDCVRFatO3-3" value="book_id" style="shape=partialRectangle;overflow=hidden;connectable=0;fillColor=none;align=left;strokeColor=#E07A5F;top=0;left=0;bottom=0;right=0;spacingLeft=6;fontStyle=5;rounded=1;labelBackgroundColor=none;fontColor=#393C56;" vertex="1" parent="zCOiCKSvqBVDCVRFatO3-1">
          <mxGeometry x="30" width="130" height="30" as="geometry">
            <mxRectangle width="130" height="30" as="alternateBounds" />
          </mxGeometry>
        </mxCell>
        <mxCell id="zCOiCKSvqBVDCVRFatO3-4" value="" style="shape=tableRow;horizontal=0;startSize=0;swimlaneHead=0;swimlaneBody=0;fillColor=none;collapsible=0;dropTarget=0;points=[[0,0.5],[1,0.5]];portConstraint=eastwest;strokeColor=#E07A5F;top=0;left=0;right=0;bottom=1;rounded=1;labelBackgroundColor=none;fontColor=#393C56;" vertex="1" parent="zCOiCKSvqBVDCVRFatO3-0">
          <mxGeometry y="60" width="160" height="30" as="geometry" />
        </mxCell>
        <mxCell id="zCOiCKSvqBVDCVRFatO3-5" value="PK" style="shape=partialRectangle;overflow=hidden;connectable=0;fillColor=none;strokeColor=#E07A5F;top=0;left=0;bottom=0;right=0;fontStyle=1;rounded=1;labelBackgroundColor=none;fontColor=#393C56;" vertex="1" parent="zCOiCKSvqBVDCVRFatO3-4">
          <mxGeometry width="30" height="30" as="geometry">
            <mxRectangle width="30" height="30" as="alternateBounds" />
          </mxGeometry>
        </mxCell>
        <mxCell id="zCOiCKSvqBVDCVRFatO3-6" value="uid " style="shape=partialRectangle;overflow=hidden;connectable=0;fillColor=none;align=left;strokeColor=#E07A5F;top=0;left=0;bottom=0;right=0;spacingLeft=6;fontStyle=5;rounded=1;labelBackgroundColor=none;fontColor=#393C56;" vertex="1" parent="zCOiCKSvqBVDCVRFatO3-4">
          <mxGeometry x="30" width="130" height="30" as="geometry">
            <mxRectangle width="130" height="30" as="alternateBounds" />
          </mxGeometry>
        </mxCell>
        <mxCell id="zCOiCKSvqBVDCVRFatO3-8" style="edgeStyle=orthogonalEdgeStyle;rounded=1;orthogonalLoop=1;jettySize=auto;html=1;exitX=1;exitY=0.5;exitDx=0;exitDy=0;entryX=0.75;entryY=0;entryDx=0;entryDy=0;strokeColor=#E07A5F;fontColor=#393C56;fillColor=#F2CC8F;startArrow=ERzeroToMany;startFill=0;endArrow=ERone;endFill=0;" edge="1" parent="WIyWlLk6GJQsqaUBKTNV-1" source="zCOiCKSvqBVDCVRFatO3-1" target="n1B3bG07Pymk0ozTTaGz-65">
          <mxGeometry relative="1" as="geometry" />
        </mxCell>
      </root>
    </mxGraphModel>
  </diagram>
</mxfile>
